<svg width="50" height="50" viewBox="0 0 50 50" fill="none" xmlns="http://www.w3.org/2000/svg">
<g clip-path="url(#clip0_497_373)">
<path d="M21.6115 40.9151C21.5778 39.1145 21.5676 37.3132 21.5034 35.5137C21.4436 33.8354 20.9837 32.2426 20.3265 30.7057C19.2057 28.085 17.6786 25.7437 15.494 23.8848C14.8509 23.3376 14.1337 22.8679 13.4126 22.4243C10.7431 20.7814 8.06521 19.1519 5.37281 17.5473C4.82372 17.2201 4.21835 16.9464 3.60346 16.7791C2.2331 16.4064 1.10844 16.9869 0.547701 18.294C0.164761 19.1863 0.050993 20.1353 0.158237 21.0917C0.383661 23.1016 0.645071 25.1077 0.899424 27.1145C1.10544 28.7397 1.22398 30.384 1.55417 31.984C2.40966 36.1295 4.45506 39.601 7.7851 42.2445C10.256 44.206 12.7739 46.109 15.298 48.0017C15.9551 48.4944 16.695 48.8886 17.433 49.2551C17.8204 49.4476 18.2806 49.5239 18.7171 49.5802C19.8716 49.7291 20.8363 49.1597 21.3019 48.0927C21.5653 47.4893 21.657 46.8532 21.6552 46.1974C21.6503 44.4367 21.6537 42.676 21.6537 40.9153C21.6395 40.9153 21.6254 40.9153 21.6113 40.9153L21.6115 40.9151ZM15.0878 36.5424C14.4466 36.4756 13.8931 36.3916 13.3369 36.3667C12.7219 36.3392 12.1507 36.5565 11.7597 37.0174C11.4087 37.4313 11.1762 37.9461 10.8678 38.455C9.96015 35.3993 8.39029 32.7495 6.23712 30.4001C7.13388 30.6322 7.97949 30.6533 8.766 30.1388C9.54564 29.6287 9.81834 28.8103 10.0704 27.9555C11.0264 31.2384 12.7097 34.0684 15.0876 36.5426L15.0878 36.5424Z" fill="white"/>
<path d="M25.287 18.3326C27.3761 18.3702 29.5734 18.0553 31.6377 17.1374C32.7985 16.6213 33.8984 15.9649 35.0145 15.3513C37.1766 14.1624 39.3395 12.9744 41.4819 11.7505C42.0009 11.454 42.4985 11.0728 42.9052 10.6364C43.8588 9.6137 43.8381 8.29414 42.9299 7.2284C42.2459 6.42565 41.3934 5.84992 40.4345 5.44228C37.3634 4.13701 34.2923 2.83138 31.2066 1.56138C28.6066 0.491408 25.8856 0.26757 23.1058 0.500756C21.3124 0.651216 19.6156 1.1257 17.964 1.83337C15.1572 3.03617 12.3275 4.18534 9.51572 5.37684C8.55811 5.78254 7.68392 6.33446 7.03428 7.17177C6.11865 8.35199 6.17756 9.62128 7.25177 10.6629C7.71003 11.1072 8.25172 11.4887 8.80946 11.803C11.5581 13.3517 14.3347 14.8514 17.0826 16.4013C19.5859 17.8133 22.284 18.3578 25.287 18.3328V18.3326ZM29.7628 6.07852C28.1036 7.95194 28.5518 9.25475 30.2241 10.8687C28.4904 10.4124 26.8279 10.1672 25.1311 10.1376C23.4259 10.1078 21.7562 10.3702 20.0729 10.6791C20.6494 10.007 21.2311 9.40186 21.2895 8.47335C21.3491 7.52349 20.8699 6.82711 20.2904 6.12332C23.4467 6.82588 26.5709 6.8862 29.7628 6.07852Z" fill="white"/>
<path d="M28.3918 41.0869C28.3505 42.7866 28.2812 44.4865 28.2832 46.186C28.2839 46.7822 28.3821 47.4039 28.5707 47.9687C28.9757 49.1814 30.0217 49.7589 31.2881 49.579C32.4465 49.4144 33.4323 48.8672 34.3423 48.1754C36.42 46.5957 38.4938 45.0105 40.5496 43.4024C41.5679 42.6058 42.6267 41.8352 43.5207 40.9109C45.9808 38.3675 47.649 35.3566 48.2883 31.8551C48.6769 29.7271 48.8968 27.5681 49.1863 25.4224C49.3757 24.0187 49.5637 22.6146 49.7343 21.2084C49.8483 20.2699 49.7472 19.3458 49.4143 18.4591C48.9132 17.1236 47.806 16.511 46.42 16.8538C45.8783 16.9876 45.3362 17.208 44.8575 17.4949C41.8556 19.2941 38.8638 21.1106 35.885 22.9476C34.4555 23.8292 33.3035 25.0253 32.2967 26.3595C30.5162 28.7185 29.2284 31.3074 28.6984 34.2386C28.6158 34.6957 28.5483 35.1604 28.5324 35.6235C28.4703 37.444 28.4317 39.2655 28.3844 41.0866C28.3869 41.0866 28.3893 41.0866 28.3916 41.0867L28.3918 41.0869ZM37.4896 36.5858C36.6711 36.2078 35.8397 36.4052 34.9773 36.552C37.2402 34.0414 38.9684 31.2562 39.8539 27.9631C40.1001 28.5349 40.2843 29.0681 40.5519 29.5553C40.8362 30.0729 41.3183 30.4237 41.8981 30.5052C42.4352 30.5807 42.9913 30.5212 43.6556 30.5212C41.4407 32.9012 39.8714 35.5342 38.9411 38.5801C38.712 37.7202 38.3403 36.9786 37.4896 36.5857V36.5858Z" fill="white"/>
</g>
<defs>
<clipPath id="clip0_497_373">
<rect width="50" height="50" fill="white" transform="matrix(-1 0 0 1 50 0)"/>
</clipPath>
</defs>
</svg>
