<svg width="72" height="72" viewBox="0 0 72 72" fill="none" xmlns="http://www.w3.org/2000/svg">
<g clip-path="url(#clip0_156_909)">
<path d="M31.1208 58.9178C31.0723 56.3249 31.0576 53.7311 30.9651 51.1398C30.879 48.723 30.2168 46.4293 29.2704 44.2163C27.6565 40.4423 25.4574 37.071 22.3116 34.3941C21.3855 33.6062 20.3527 32.9298 19.3144 32.291C15.4704 29.9252 11.6141 27.5788 7.73709 25.2681C6.94639 24.797 6.07467 24.4028 5.18922 24.162C3.2159 23.6253 1.5964 24.4612 0.788933 26.3433C0.237499 27.6283 0.0736732 28.9948 0.228106 30.372C0.552717 33.2663 0.929144 36.1551 1.29541 39.0448C1.59208 41.3852 1.76277 43.753 2.23825 46.057C3.47015 52.0265 6.41553 57.0254 11.2108 60.8321C14.7688 63.6566 18.3947 66.397 22.0294 69.1224C22.9755 69.8319 24.0411 70.3995 25.1038 70.9274C25.6616 71.2045 26.3243 71.3145 26.9529 71.3955C28.6154 71.6099 30.0045 70.7899 30.675 69.2535C31.0543 68.3846 31.1863 67.4686 31.1838 66.5243C31.1767 63.9889 31.1815 61.4534 31.1815 58.918C31.1612 58.918 31.1411 58.9178 31.1208 58.9178ZM21.7266 52.6211C20.8033 52.5248 20.0063 52.4039 19.2054 52.3681C18.3197 52.3285 17.4973 52.6414 16.9342 53.3051C16.4287 53.901 16.0939 54.6424 15.6499 55.3752C14.3429 50.9749 12.0823 47.1593 8.98169 43.7761C10.273 44.1103 11.4907 44.1408 12.6233 43.3999C13.746 42.6653 14.1386 41.4868 14.5016 40.2559C15.8783 44.9833 18.3025 49.0582 21.7266 52.6211Z" fill="#1F68FF"/>
<path d="M36.4134 26.3989C39.4217 26.453 42.5858 25.9997 45.5584 24.6778C47.2299 23.9346 48.8139 22.9895 50.4209 22.1058C53.5345 20.3939 56.649 18.6832 59.7341 16.9207C60.4814 16.4937 61.1979 15.9448 61.7836 15.3164C63.1567 13.8437 63.127 11.9436 61.8192 10.4089C60.8342 9.25295 59.6066 8.4239 58.2258 7.83691C53.8035 5.95731 49.3811 4.0772 44.9376 2.24841C41.1936 0.707645 37.2755 0.385319 33.2724 0.721107C30.69 0.937768 28.2465 1.62103 25.8683 2.64007C21.8264 4.3721 17.7518 6.02691 13.7028 7.74267C12.3238 8.32687 11.065 9.12164 10.1295 10.3274C8.81098 12.0269 8.89582 13.8547 10.4427 15.3545C11.1026 15.9944 11.8826 16.5438 12.6857 16.9964C16.6438 19.2265 20.642 21.386 24.5991 23.6179C28.2039 25.6512 32.089 26.4353 36.4134 26.3992V26.3989ZM42.8586 8.75308C40.4692 11.4508 41.1147 13.3269 43.5228 15.651C41.0263 14.9939 38.6323 14.6408 36.1888 14.5981C33.7334 14.5552 31.3291 14.9331 28.9051 15.3779C29.7352 14.4102 30.5729 13.5387 30.657 12.2016C30.7428 10.8338 30.0527 9.83106 29.2183 8.8176C33.7634 9.82928 38.2622 9.91615 42.8586 8.75308Z" fill="#1F68FF"/>
<path d="M40.8845 59.1651C40.8251 61.6127 40.7253 64.0605 40.7281 66.5078C40.7291 67.3663 40.8706 68.2616 41.1421 69.0749C41.7253 70.8212 43.2315 71.6528 45.0552 71.3937C46.7232 71.1567 48.1428 70.3688 49.4532 69.3726C52.4451 67.0978 55.4313 64.8151 58.3917 62.4994C59.858 61.3523 61.3828 60.2426 62.6701 58.9116C66.2126 55.2492 68.6149 50.9135 69.5354 45.8713C70.095 42.8071 70.4117 39.6981 70.8285 36.6082C71.1013 34.5869 71.3721 32.565 71.6177 30.5401C71.7818 29.1886 71.6363 27.8579 71.157 26.5811C70.4354 24.658 68.841 23.7759 66.8451 24.2694C66.065 24.4622 65.2845 24.7794 64.5951 25.1927C60.2723 27.7835 55.9642 30.3992 51.6747 33.0446C49.6163 34.3141 47.9574 36.0364 46.5076 37.9577C43.9437 41.3547 42.0892 45.0826 41.326 49.3036C41.2071 49.9617 41.1098 50.631 41.087 51.2978C40.9976 53.9193 40.9419 56.5423 40.8739 59.1646C40.8774 59.1646 40.881 59.1646 40.8843 59.1649L40.8845 59.1651ZM53.9853 52.6836C52.8068 52.1393 51.6094 52.4235 50.3676 52.6348C53.6262 49.0196 56.1149 45.009 57.3899 40.2668C57.7445 41.0903 58.0097 41.8581 58.395 42.5597C58.8045 43.3049 59.4986 43.8101 60.3335 43.9274C61.107 44.0362 61.9078 43.9506 62.8644 43.9506C59.6749 47.3778 57.4151 51.1692 56.0755 55.5553C55.7455 54.317 55.2104 53.2492 53.9853 52.6833V52.6836Z" fill="#1F68FF"/>
</g>
<defs>
<clipPath id="clip0_156_909">
<rect width="72" height="72" fill="white" transform="matrix(-1 0 0 1 72 0)"/>
</clipPath>
</defs>
</svg>
