<svg width="42" height="52" viewBox="0 0 42 52" fill="none" xmlns="http://www.w3.org/2000/svg">
<path d="M21.0646 34.1587C25.5348 34.1587 29.1587 30.5348 29.1587 26.0646C29.1587 21.5944 25.5348 17.9706 21.0646 17.9706C16.5944 17.9706 12.9706 21.5944 12.9706 26.0646C12.9706 30.5348 16.5944 34.1587 21.0646 34.1587Z" stroke="#273B4A" stroke-width="6" stroke-linecap="round" stroke-linejoin="round"/>
<path d="M18.7999 5.85955C20.1641 4.92769 21.9609 4.93044 23.3223 5.86648L37.2663 15.4539C38.3516 16.2001 39 17.4328 39 18.75V33.3923C39 34.7171 38.3441 35.9559 37.2484 36.7006L23.3045 46.1771C21.9511 47.0968 20.174 47.0996 18.8179 46.1839L4.76174 36.6938C3.66019 35.95 3 34.7077 3 33.3786V18.7637C3 17.4422 3.65265 16.206 4.74385 15.4607L18.7999 5.85955Z" stroke="#273B4A" stroke-width="6"/>
</svg>
