<svg width="51" height="54" viewBox="0 0 51 54" fill="none" xmlns="http://www.w3.org/2000/svg">
<path fill-rule="evenodd" clip-rule="evenodd" d="M46.5697 16.3973L45.0225 13.7125C43.7136 11.4408 40.8129 10.6571 38.5381 11.9606C37.4552 12.5985 36.1631 12.7795 34.9467 12.4636C33.7302 12.1478 32.6894 11.361 32.0536 10.2769C31.6446 9.5878 31.4249 8.80292 31.4166 8.00164C31.4534 6.71699 30.9688 5.4721 30.073 4.55056C29.1772 3.62903 27.9465 3.10933 26.6613 3.10986H23.5442C22.2851 3.10986 21.0779 3.61157 20.1897 4.50402C19.3016 5.39646 18.8056 6.60605 18.8117 7.86513C18.7744 10.4647 16.6563 12.5524 14.0564 12.5521C13.2551 12.5438 12.4703 12.324 11.7812 11.9151C9.50633 10.6116 6.60564 11.3953 5.29673 13.667L3.6358 16.3973C2.32848 18.6662 3.10151 21.5651 5.36499 22.8818C6.83628 23.7312 7.74265 25.301 7.74265 26.9999C7.74265 28.6989 6.83628 30.2687 5.36499 31.1181C3.10438 32.4259 2.33051 35.3178 3.6358 37.5798L5.20572 40.2874C5.819 41.394 6.84797 42.2106 8.06495 42.5564C9.28192 42.9023 10.5866 42.749 11.6902 42.1303C12.7751 41.4973 14.0679 41.3238 15.2813 41.6486C16.4947 41.9733 17.5281 42.7692 18.1519 43.8595C18.5609 44.5486 18.7806 45.3335 18.7889 46.1348C18.7889 48.761 20.9179 50.89 23.5442 50.89H26.6613C29.2787 50.89 31.404 48.7749 31.4166 46.1575C31.4105 44.8945 31.9095 43.6814 32.8026 42.7883C33.6957 41.8952 34.9088 41.3962 36.1718 41.4023C36.9712 41.4237 37.7528 41.6425 38.4471 42.0393C40.716 43.3466 43.6148 42.5736 44.9315 40.3101L46.5697 37.5798C47.2038 36.4915 47.3778 35.1952 47.0533 33.9781C46.7287 32.761 45.9323 31.7235 44.8405 31.0954C43.7487 30.4673 42.9523 29.4298 42.6277 28.2127C42.3032 26.9956 42.4772 25.6993 43.1113 24.6109C43.5237 23.891 44.1206 23.2941 44.8405 22.8818C47.0904 21.5658 47.8616 18.6839 46.5697 16.4201V16.3973Z" stroke="#273B4A" stroke-width="6" stroke-linecap="round" stroke-linejoin="round"/>
<path d="M25.1139 33.5523C28.7327 33.5523 31.6662 30.6187 31.6662 27C31.6662 23.3812 28.7327 20.4476 25.1139 20.4476C21.4952 20.4476 18.5616 23.3812 18.5616 27C18.5616 30.6187 21.4952 33.5523 25.1139 33.5523Z" stroke="#273B4A" stroke-width="6" stroke-linecap="round" stroke-linejoin="round"/>
</svg>
